<svg id="Group_3333" data-name="Group 3333" xmlns="http://www.w3.org/2000/svg" width="13.997" height="13.947" viewBox="0 0 13.997 13.947">
  <path id="Path_1086" data-name="Path 1086" d="M59.207,251.283a2.763,2.763,0,1,1,0,3.907,2.767,2.767,0,0,1,0-3.907" transform="translate(-58.4 -242.051)" fill="#fff"/>
  <path id="Path_1087" data-name="Path 1087" d="M67.463,251.262a2.762,2.762,0,1,1,0,3.9,2.768,2.768,0,0,1,0-3.9" transform="translate(-58.179 -242.052)" fill="#fff"/>
  <path id="Path_1085" data-name="Path 1085" d="M59.229,243.027a2.761,2.761,0,1,1,0,3.906,2.765,2.765,0,0,1,0-3.906" transform="translate(-58.42 -242.22)" fill="#fff"/>
  <path id="Line_295" data-name="Line 295" d="M11.536-.025H-.378A.367.367,0,0,1-.75-.388.367.367,0,0,1-.378-.75H11.536a.367.367,0,0,1,.372.362A.367.367,0,0,1,11.536-.025Z" transform="translate(1.409 7.365)" fill="#fff"/>
  <path id="Line_295-2" data-name="Line 295" d="M12.235.725H.371A.367.367,0,0,1,0,.362.367.367,0,0,1,.371,0H12.235a.367.367,0,0,1,.371.362A.367.367,0,0,1,12.235.725Z" transform="translate(7.35 0.675) rotate(90)" fill="#fff"/>
</svg>
